<svg width="36" height="25" viewBox="0 0 36 25" fill="none" xmlns="http://www.w3.org/2000/svg">
<path fill-rule="evenodd" clip-rule="evenodd" d="M28.3151 15.3587C24.1823 15.3587 20.8203 12.0508 20.8203 7.98497C20.8203 3.91913 24.1823 0.611633 28.3151 0.611633C32.4475 0.611633 35.8094 3.91913 35.8094 7.98497C35.8094 12.0508 32.4475 15.3587 28.3151 15.3587ZM28.3151 1.7508C24.8205 1.7508 21.9778 4.54788 21.9778 7.98497C21.9778 11.4225 24.8205 14.2195 28.3151 14.2195C31.8088 14.2195 34.6519 11.4225 34.6519 7.98497C34.6519 4.54788 31.8088 1.7508 28.3151 1.7508Z" fill="white"/>
<path fill-rule="evenodd" clip-rule="evenodd" d="M10.4082 24.6762C4.66899 24.6762 0 20.0829 0 14.4366C0 8.79037 4.66899 4.19745 10.4082 4.19745C16.1475 4.19745 20.8165 8.79037 20.8165 14.4366C20.8165 20.0829 16.1475 24.6762 10.4082 24.6762ZM10.4082 6.21245C5.79854 6.21245 2.04861 9.90203 2.04861 14.4366C2.04861 18.9716 5.79854 22.6612 10.4082 22.6612C15.0179 22.6612 18.7679 18.9716 18.7679 14.4366C18.7679 9.90203 15.0179 6.21245 10.4082 6.21245Z" fill="white"/>
<path fill-rule="evenodd" clip-rule="evenodd" d="M26.4182 24.5942C24.3413 24.5942 22.6514 22.9317 22.6514 20.8883C22.6514 18.845 24.3413 17.1825 26.4182 17.1825C28.4952 17.1825 30.1851 18.845 30.1851 20.8883C30.1851 22.9317 28.4952 24.5942 26.4182 24.5942ZM26.4182 18.3404C24.9905 18.3404 23.8288 19.4837 23.8288 20.8883C23.8288 22.2933 24.9905 23.4362 26.4182 23.4362C27.8464 23.4362 29.0077 22.2933 29.0077 20.8883C29.0077 19.4837 27.8464 18.3404 26.4182 18.3404Z" fill="white"/>
</svg>
